<svg xmlns="http://www.w3.org/2000/svg" viewBox="0 0 32 32">
  <!-- Background -->
  <rect width="32" height="32" rx="6" fill="#1a1a2e"/>
  
  <!-- Network edges -->
  <g stroke="#4a5568" stroke-width="1.5" opacity="0.6">
    <line x1="8" y1="10" x2="16" y2="8"/>
    <line x1="16" y1="8" x2="24" y2="12"/>
    <line x1="8" y1="10" x2="10" y2="18"/>
    <line x1="16" y1="8" x2="16" y2="16"/>
    <line x1="24" y1="12" x2="22" y2="20"/>
    <line x1="10" y1="18" x2="16" y2="16"/>
    <line x1="16" y1="16" x2="22" y2="20"/>
    <line x1="10" y1="18" x2="12" y2="26"/>
    <line x1="16" y1="16" x2="16" y2="24"/>
    <line x1="22" y1="20" x2="20" y2="26"/>
    <line x1="12" y1="26" x2="16" y2="24"/>
    <line x1="16" y1="24" x2="20" y2="26"/>
  </g>
  
  <!-- Nodes - supports (green) -->
  <circle cx="8" cy="10" r="3" fill="#10b981"/>
  <circle cx="10" cy="18" r="2.5" fill="#10b981"/>
  <circle cx="12" cy="26" r="2" fill="#10b981"/>
  
  <!-- Nodes - challenges (red) -->
  <circle cx="24" cy="12" r="2.5" fill="#ef4444"/>
  <circle cx="20" cy="26" r="2" fill="#ef4444"/>
  
  <!-- Nodes - balanced (yellow) -->
  <circle cx="16" cy="8" r="3" fill="#f59e0b"/>
  <circle cx="16" cy="16" r="3.5" fill="#f59e0b"/>
  <circle cx="22" cy="20" r="2.5" fill="#f59e0b"/>
  <circle cx="16" cy="24" r="2" fill="#f59e0b"/>
</svg>
